<svg xmlns="http://www.w3.org/2000/svg" viewBox="0 0 512 512" role="img" aria-label="Psychrometric Load Calculator">
  <rect width="512" height="512" rx="104" fill="#0f766e"/>
  <path d="M101 345c44-72 94-108 150-108 48 0 82 27 122 27 27 0 49-11 69-32" fill="none" stroke="#d9fff8" stroke-width="28" stroke-linecap="round"/>
  <path d="M104 384h304" stroke="#d9fff8" stroke-width="22" stroke-linecap="round"/>
  <path d="M147 337l-23 47M212 277l-39 107M283 254l-36 130M354 265l-20 119" stroke="#83f4df" stroke-width="14" stroke-linecap="round"/>
  <circle cx="161" cy="178" r="47" fill="#fff4df"/>
  <path d="M161 107v-26M161 275v-26M90 178H64M258 178h-26M111 128l-19-19M230 247l-19-19M111 228l-19 19M230 109l-19 19" stroke="#fff4df" stroke-width="16" stroke-linecap="round"/>
  <circle cx="332" cy="167" r="51" fill="#d9fff8"/>
  <path d="M332 122v90M292 167h80" stroke="#0f766e" stroke-width="20" stroke-linecap="round"/>
</svg>
